<svg width="170" height="169" viewBox="0 0 170 169" fill="none" xmlns="http://www.w3.org/2000/svg">
<path d="M85.2463 3.0558C39.2599 3.0558 3.62152 36.6647 3.62152 82.06C3.62152 105.804 13.3784 126.322 29.26 140.496C32.0022 142.962 31.4373 144.391 31.9037 159.619C31.9404 160.686 32.2375 161.727 32.7692 162.653C33.3008 163.578 34.0508 164.36 34.9538 164.929C35.8567 165.498 36.8852 165.837 37.9495 165.917C39.0137 165.998 40.0815 165.816 41.0596 165.389C58.4354 157.737 58.6587 157.133 61.6045 157.934C111.946 171.79 166.51 139.573 166.51 82.06C166.51 36.6647 131.236 3.0558 85.2463 3.0558ZM134.257 63.8532L110.284 101.807C109.379 103.234 108.188 104.459 106.788 105.405C105.387 106.35 103.806 106.996 102.144 107.303C100.482 107.609 98.7741 107.568 97.1283 107.184C95.4826 106.799 93.934 106.079 92.5796 105.068L73.5059 90.7922C72.6532 90.1527 71.6161 89.807 70.5503 89.807C69.4844 89.807 68.4473 90.1527 67.5946 90.7922L41.8576 110.313C38.4225 112.917 33.9234 108.802 36.2386 105.166L60.2121 67.2128C61.1171 65.7853 62.3072 64.5601 63.708 63.6141C65.1087 62.6682 66.6897 62.0218 68.352 61.7157C70.0143 61.4095 71.7219 61.4501 73.3677 61.8348C75.0136 62.2196 76.5621 62.9403 77.9164 63.9518L96.9835 78.2242C97.8362 78.8637 98.8733 79.2094 99.9391 79.2094C101.005 79.2094 102.042 78.8637 102.895 78.2242L128.645 58.7236C132.073 56.1029 136.573 60.2145 134.257 63.8532V63.8532Z" fill="white"/>
</svg>
