<svg width="169" height="169" viewBox="0 0 169 169" fill="none" xmlns="http://www.w3.org/2000/svg">
<g clip-path="url(#clip0_2_80)">
<path d="M43.4642 147.485H12.962V49.2594H43.4642V147.485ZM28.1967 35.8605C18.4431 35.8605 10.5318 27.7818 10.5318 18.0282C10.5318 13.3432 12.3929 8.85006 15.7057 5.53726C19.0185 2.22446 23.5117 0.363342 28.1967 0.363342C32.8817 0.363342 37.3748 2.22446 40.6876 5.53726C44.0004 8.85006 45.8615 13.3432 45.8615 18.0282C45.8615 27.7818 37.947 35.8605 28.1967 35.8605ZM157.624 147.485H127.188V99.6694C127.188 88.2738 126.958 73.6598 111.329 73.6598C95.4702 73.6598 93.0401 86.0407 93.0401 98.8484V147.485H62.5707V49.2594H91.825V62.6583H92.2519C96.3241 54.9408 106.271 46.7964 121.112 46.7964C151.982 46.7964 157.657 67.1246 157.657 93.5283V147.485H157.624Z" fill="white"/>
</g>
<defs>
<clipPath id="clip0_2_80">
<rect width="168.143" height="168.143" fill="white" transform="translate(0.0228882 0.360046)"/>
</clipPath>
</defs>
</svg>
