<svg width="169" height="169" viewBox="0 0 169 169" fill="none" xmlns="http://www.w3.org/2000/svg">
<g clip-path="url(#clip0_2_75)">
<path d="M67.89 79.012C77.1729 74.5749 82.0186 67.8609 82.0186 57.4103C82.0186 36.8011 66.6639 31.7802 48.9447 31.7802H0.165771V135.235H50.3167C69.116 135.235 86.7769 126.215 86.7769 105.197C86.7769 92.2065 80.6175 82.6025 67.89 79.012V79.012ZM22.9059 49.441H44.2449C52.4477 49.441 59.8331 51.7472 59.8331 61.2636C59.8331 70.0502 54.0824 73.5824 45.9672 73.5824H22.9059V49.441V49.441ZM47.2224 117.662H22.9059V89.1706H47.6895C57.7022 89.1706 64.0367 93.345 64.0367 103.942C64.0367 114.392 56.4761 117.662 47.2224 117.662V117.662ZM151.874 47.3976H109.926V37.2098H151.874V47.3976V47.3976ZM168.309 98.8622C168.309 76.7059 155.348 58.2277 131.848 58.2277C109.021 58.2277 93.5201 75.3923 93.5201 97.8697C93.5201 121.194 108.203 137.191 131.848 137.191C149.743 137.191 161.332 129.134 166.907 111.998H148.75C146.795 118.391 138.738 121.778 132.491 121.778C120.435 121.778 114.1 114.713 114.1 102.715H168.133C168.221 101.489 168.309 100.176 168.309 98.8622ZM114.129 89.7545C114.801 79.9169 121.34 73.7575 131.206 73.7575C141.54 73.7575 146.736 79.8294 147.612 89.7545H114.129Z" fill="white"/>
</g>
<defs>
<clipPath id="clip0_2_75">
<rect width="168.143" height="168.143" fill="white" transform="translate(0.165771 0.428571)"/>
</clipPath>
</defs>
</svg>
