<svg width="169" height="169" viewBox="0 0 169 169" fill="none" xmlns="http://www.w3.org/2000/svg">
<path d="M84.2087 122.963C75.9197 112.562 71.0462 103.446 69.4305 95.646C62.025 66.7465 106.412 66.7465 99.0065 95.646C97.2167 103.61 92.3432 112.723 84.2284 122.963H84.2087ZM129.578 147.012C115.765 153.025 102.1 143.439 90.3991 130.437C124.52 87.7216 105.542 64.7563 84.2087 64.7563C66.1727 64.7563 56.2418 80.0304 60.1432 97.761C62.419 107.347 68.4288 118.25 78.0182 130.437C67.3353 142.276 58.1334 147.741 50.0546 148.473C33.6344 150.913 20.7906 134.989 26.6394 118.559C31.5983 105.698 63.3287 42.6383 64.6916 39.2295C69.864 29.3544 73.0856 20.3791 84.1922 20.3791C94.8128 20.3791 98.445 28.8979 104.018 40.0407C115.841 63.2326 133.361 98.3258 141.732 118.559C146.057 129.419 141.282 141.971 129.578 147.012ZM145.013 102.309C102.688 12.2281 100.343 10.9375 84.2087 10.9375C69.2597 10.9375 62.9051 21.3381 56.406 34.842C21.5426 104.565 18.1633 114.447 17.871 115.308C9.58869 138.076 26.6526 158.062 47.3059 158.062C54.4355 158.062 67.2105 156.072 84.2087 137.57C103.479 158.516 117.463 158.062 121.111 158.062C141.765 158.079 158.829 138.076 150.54 115.308C150.546 114.03 145.016 102.533 145.016 102.309H145.013Z" fill="white"/>
</svg>
