<svg width="170" height="169" viewBox="0 0 170 169" fill="none" xmlns="http://www.w3.org/2000/svg">
<path d="M120.048 80.333C121.062 80.2015 122.089 80.2015 123.102 80.333C123.648 79.0752 123.743 76.9077 123.25 74.5498C122.518 71.0457 121.526 68.921 119.48 69.2526C117.434 69.5843 117.355 72.1229 118.088 75.6302C118.501 77.6007 119.234 79.2887 120.058 80.333H120.048ZM102.459 83.1179C103.927 83.7747 104.823 84.1885 105.178 83.8174C105.799 83.1803 104.035 80.7336 101.198 79.5186C99.5595 78.8398 97.774 78.5944 96.0133 78.8061C94.2527 79.0177 92.5762 79.6793 91.1454 80.7271C90.1602 81.443 89.2374 82.4413 89.3687 83.0456C89.6479 84.2738 92.6528 82.1556 96.7907 81.9028C99.0895 81.7583 100.994 82.4775 102.459 83.1211V83.1179ZM99.5033 84.8026C96.5247 85.2689 94.5772 86.9471 95.0797 88.1195C95.3753 88.2311 95.4639 88.3855 96.7907 87.8535C98.7505 87.1136 100.868 86.893 102.938 87.2131C103.897 87.3247 104.354 87.3838 104.561 87.0521C105.04 86.3231 102.686 84.4249 99.5066 84.8026H99.5033ZM117.293 90.4183C118.403 88.1622 113.713 85.8436 112.597 88.1195C111.48 90.3953 116.183 92.6777 117.3 90.4084L117.293 90.4183ZM122.436 83.6959C119.92 83.6532 119.825 88.8846 122.35 88.9273C124.876 88.97 124.971 83.7353 122.442 83.686L122.436 83.6959ZM50.5842 109.607C50.1507 109.709 48.6138 110.083 47.8027 108.835C46.095 106.208 51.4512 102.142 48.7879 97.0882C45.7994 91.351 39.6517 92.6416 37.2773 95.2688C34.4169 98.4215 34.4136 102.999 35.6353 103.177C37.0376 103.364 36.9752 101.052 38.0589 99.3574C38.3617 98.8902 38.7542 98.4876 39.2135 98.1729C39.6729 97.8582 40.19 97.6377 40.7351 97.5241C41.2802 97.4105 41.8424 97.406 42.3893 97.511C42.9361 97.616 43.4567 97.8284 43.9209 98.1358C47.7271 100.628 44.3708 103.968 44.6697 107.535C45.1262 113.012 50.7189 112.911 51.7566 110.49C51.8237 110.371 51.8532 110.234 51.8415 110.098C51.8298 109.961 51.7773 109.831 51.691 109.725C51.7008 110.017 51.9143 109.298 50.5908 109.597L50.5842 109.607ZM149.013 104.001C147.913 100.149 148.169 100.973 146.787 97.2622C147.591 96.057 151.808 89.3805 145.779 83.0588C142.363 79.4726 134.646 77.6269 132.281 76.9701C131.789 73.2296 133.808 57.6928 125.214 49.7126C132.042 42.6355 136.301 34.8392 136.291 28.1529C136.271 15.2926 120.478 11.4043 101.014 19.46L96.8925 21.2104C96.8728 21.194 89.4344 13.8969 89.3228 13.7983C67.1391 -5.55122 -2.24284 71.5613 19.9409 90.2935L24.7881 94.4018C23.48 97.912 23.0186 101.681 23.4416 105.403C24.5451 116.372 35.2642 125.246 45.6188 125.232C64.5775 168.93 133.598 169.002 151.46 126.218C152.032 124.75 154.452 118.136 154.452 112.3C154.452 106.464 151.138 104.001 149.023 104.001H149.013ZM45.2378 119.817C37.7436 119.617 29.6518 112.871 28.8472 104.871C26.8209 84.7369 53.2345 80.1524 56.4331 100.822C57.9241 110.556 54.8995 120.03 45.228 119.807L45.2378 119.817ZM39.1591 82.3133C34.1805 83.2821 29.793 86.1031 27.1066 90.0143C25.504 88.6777 22.509 86.0735 21.9868 85.0883C17.7143 76.9274 26.6633 61.1148 32.9227 52.1789C48.3938 30.1003 72.6201 13.3911 83.8417 16.4223C85.6644 16.9379 91.7037 23.9395 91.7037 23.9395C91.7037 23.9395 80.4887 30.1594 70.0947 38.8326C56.085 49.6207 45.5005 65.2987 39.1591 82.3133ZM117.608 115.531C117.608 115.531 105.871 117.272 94.7808 113.21C96.8202 106.589 103.648 115.213 126.439 108.674C131.46 107.236 138.055 104.405 143.188 100.349C144.292 102.901 145.078 105.579 145.526 108.323C146.728 108.106 150.206 108.152 149.283 114.267C148.202 120.792 145.431 126.09 140.767 130.963C137.854 134.119 134.387 136.714 130.537 138.618C128.393 139.742 126.159 140.684 123.858 141.436C106.285 147.176 88.2916 140.864 82.4788 127.314C82.0074 126.28 81.6176 125.211 81.313 124.116C78.8401 115.183 80.9386 104.467 87.5001 97.722C87.9041 97.2918 88.3146 96.786 88.3146 96.1489C88.2572 95.6003 88.0377 95.0813 87.684 94.658C85.3852 91.3313 77.4411 85.6597 79.0372 74.6812C80.1866 66.7995 87.0798 61.2462 93.5099 61.5746L95.1519 61.6698C97.9368 61.834 100.37 62.192 102.666 62.2872C106.505 62.4514 109.956 61.8964 114.042 58.4908C115.421 57.3414 116.528 56.3431 118.396 56.0245C119.152 55.8375 119.937 55.8062 120.705 55.9327C121.473 56.0592 122.207 56.3407 122.863 56.7602C126.147 58.9408 126.606 64.2248 126.777 68.0868C126.872 70.2937 127.138 75.6401 127.23 77.1606C127.437 80.6647 128.357 81.1573 130.222 81.7583C131.27 82.1031 132.242 82.3592 133.674 82.7632C138.012 83.9816 140.57 85.2197 142.212 86.8058C143.05 87.626 143.596 88.6973 143.769 89.8567C144.281 93.5907 140.872 98.1982 131.845 102.389C116.505 109.508 101.08 107.134 98.8465 106.881C92.2291 105.991 88.4591 114.54 92.4262 120.395C99.8613 131.367 132.623 126.963 142.137 113.384C142.363 113.055 142.176 112.861 141.897 113.055C128.18 122.441 110.022 125.603 99.7102 121.594C98.1437 120.986 94.8728 119.479 94.4754 116.119C108.794 120.549 117.792 116.362 117.792 116.362C117.792 116.362 118.459 115.446 117.608 115.531V115.531ZM67.7335 52.0837C73.231 45.7291 80.0027 40.202 86.0683 37.0986C86.1141 37.0715 86.1676 37.0604 86.2204 37.0671C86.2732 37.0737 86.3223 37.0978 86.3599 37.1354C86.3975 37.173 86.4216 37.2221 86.4282 37.2749C86.4349 37.3277 86.4238 37.3812 86.3967 37.427C85.9172 38.3006 84.9878 40.1659 84.6923 41.5813C84.6805 41.63 84.6839 41.6811 84.7019 41.7278C84.7199 41.7745 84.7517 41.8146 84.793 41.8428C84.8344 41.8709 84.8834 41.8858 84.9334 41.8855C84.9835 41.8851 85.0323 41.8695 85.0732 41.8408C88.8466 39.2694 95.4114 36.514 101.165 36.1594C101.219 36.1557 101.273 36.1695 101.319 36.1989C101.365 36.2283 101.4 36.2716 101.419 36.3225C101.438 36.3734 101.44 36.429 101.425 36.4813C101.41 36.5335 101.379 36.5796 101.336 36.6126C100.384 37.3456 99.5331 38.2002 98.8038 39.1544C98.7774 39.1908 98.7615 39.2337 98.7578 39.2784C98.754 39.3232 98.7626 39.3681 98.7825 39.4084C98.8025 39.4486 98.8331 39.4827 98.871 39.5068C98.9089 39.5309 98.9526 39.5442 98.9976 39.5452C103.04 39.5748 108.738 40.9902 112.462 43.0723C112.712 43.2135 112.534 43.6995 112.252 43.6371C89.4114 38.4024 71.832 49.7225 68.0816 52.4482C68.0316 52.4804 67.9718 52.4937 67.9129 52.4857C67.8539 52.4778 67.7998 52.449 67.7602 52.4047C67.7206 52.3603 67.6981 52.3033 67.6969 52.2438C67.6956 52.1844 67.7155 52.1264 67.7532 52.0804L67.7335 52.0837Z" fill="white"/>
</svg>
