<svg width="169" height="169" viewBox="0 0 169 169" fill="none" xmlns="http://www.w3.org/2000/svg">
<g clip-path="url(#clip0_2_74)">
<path d="M165.09 52.8072L88.2431 1.5762C85.6201 -0.0379013 82.8208 -0.0526796 80.1739 1.5762L3.32732 52.8072C1.3569 54.1205 0.137207 56.4666 0.137207 58.8121V110.043C0.137207 112.389 1.3569 114.734 3.32765 116.048L80.1742 167.286C82.7972 168.9 85.5965 168.915 88.2434 167.286L165.09 116.048C167.06 114.735 168.28 112.389 168.28 110.043V58.8121C168.28 56.4666 167.06 54.1205 165.09 52.8072V52.8072ZM91.4335 21.0923L148.013 58.8121L122.773 75.7016L91.4335 54.7773V21.0923ZM76.9837 21.0923V54.7773L45.6445 75.7016L20.4043 58.8121L76.9837 21.0923ZM14.587 72.3236L32.6962 84.4276L14.587 96.5316V72.3236ZM76.9837 147.763L20.4043 110.043L45.6445 93.1536L76.9837 114.078V147.763ZM84.2086 101.505L58.6867 84.4276L84.2086 67.3506L109.731 84.4276L84.2086 101.505ZM91.4335 147.763V114.078L122.773 93.1536L148.013 110.043L91.4335 147.763ZM153.83 96.5316L135.721 84.4276L153.83 72.3236V96.5316Z" fill="white"/>
</g>
<defs>
<clipPath id="clip0_2_74">
<rect width="168.143" height="168.143" fill="white" transform="translate(0.137207 0.360046)"/>
</clipPath>
</defs>
</svg>
