<svg width="169" height="169" viewBox="0 0 169 169" fill="none" xmlns="http://www.w3.org/2000/svg">
<g clip-path="url(#clip0_2_73)">
<path d="M108.167 80.2279C108.167 85.3563 104.384 89.5598 99.592 89.5598C94.884 89.5598 91.0167 85.3563 91.0167 80.2279C91.0167 75.0995 94.7999 70.896 99.592 70.896C104.384 70.896 108.167 75.0995 108.167 80.2279ZM68.9059 70.896C64.1139 70.896 60.3307 75.0995 60.3307 80.2279C60.3307 85.3563 64.1979 89.5598 68.9059 89.5598C73.698 89.5598 77.4812 85.3563 77.4812 80.2279C77.5653 75.0995 73.698 70.896 68.9059 70.896ZM157.685 17.6788V168.503C136.505 149.786 143.279 155.982 118.676 133.109L123.132 148.662H27.795C18.295 148.662 10.5604 140.927 10.5604 131.343V17.6788C10.5604 8.09462 18.295 0.360046 27.795 0.360046H140.451C149.951 0.360046 157.685 8.09462 157.685 17.6788ZM133.725 97.3785C133.725 70.3075 121.619 48.3648 121.619 48.3648C109.512 39.2851 97.9947 39.5373 97.9947 39.5373L96.8177 40.8825C111.11 45.2542 117.751 51.5595 117.751 51.5595C97.7809 40.6142 74.322 40.6122 54.9501 49.1215C51.8394 50.5507 49.9899 51.5595 49.9899 51.5595C49.9899 51.5595 56.9678 44.9179 72.1007 40.5462L71.2599 39.5373C71.2599 39.5373 59.7422 39.2851 47.6359 48.3648C47.6359 48.3648 35.5296 70.3075 35.5296 97.3785C35.5296 97.3785 42.5916 109.569 61.1714 110.157C61.1714 110.157 64.282 106.374 66.8042 103.179C56.1271 99.9847 52.0917 93.259 52.0917 93.259C53.3284 94.1246 55.3678 95.2468 55.5386 95.3608C69.7289 103.307 89.8857 105.911 107.999 98.3033C110.942 97.2103 114.22 95.613 117.667 93.343C117.667 93.343 113.464 100.237 102.45 103.348C104.973 106.542 107.999 110.157 107.999 110.157C126.579 109.569 133.725 97.3785 133.725 97.3785V97.3785Z" fill="white"/>
</g>
<defs>
<clipPath id="clip0_2_73">
<rect width="168.143" height="168.143" fill="white" transform="translate(0.0514526 0.360046)"/>
</clipPath>
</defs>
</svg>
