<svg width="169" height="169" viewBox="0 0 169 169" fill="none" xmlns="http://www.w3.org/2000/svg">
<path d="M66.2534 100.687C61.7214 100.687 58.0761 97.0422 58.0761 92.6087C58.0761 88.0768 61.7214 84.4315 66.2534 84.4315C70.7197 84.4315 74.3321 88.0768 74.3321 92.6087C74.3321 97.075 70.6868 100.687 66.2534 100.687ZM165.596 84.4315C165.596 129.423 129.143 165.876 84.1514 165.876C39.16 165.876 2.70719 129.423 2.70719 84.4315C2.70719 39.4401 39.16 2.98727 84.1514 2.98727C129.143 2.98727 165.596 39.4401 165.596 84.4315ZM122.148 70.9012C119.061 70.9012 116.335 72.182 114.332 74.1853C106.975 69.095 97.0577 65.811 86.0561 65.4497L91.7704 39.7357L109.964 43.8407C109.964 48.307 113.609 51.9195 118.043 51.9195C122.575 51.9195 126.22 48.2085 126.22 43.7422C126.22 39.2759 122.575 35.565 118.043 35.565C114.857 35.565 112.131 37.4697 110.785 40.0969L90.6866 35.6306C89.7014 35.3679 88.6834 36.0904 88.4206 37.0756L82.1481 65.4497C71.2451 65.9095 61.4258 69.1607 54.0696 74.2509C52.0663 72.1492 49.242 70.9012 46.155 70.9012C34.6937 70.9012 30.9499 86.3034 41.426 91.525C41.0648 93.167 40.8677 94.8747 40.8677 96.6153C40.8677 113.889 60.3093 127.879 84.2171 127.879C108.223 127.879 127.665 113.889 127.665 96.6153C127.665 94.8747 127.468 93.0685 127.041 91.4265C137.32 86.172 133.543 70.9012 122.148 70.9012V70.9012ZM99.5207 109.062C93.5437 115.039 74.5291 114.94 68.7821 109.062C68.0596 108.339 66.7788 108.339 66.0563 109.062C65.2353 109.883 65.2353 111.164 66.0563 111.886C73.5439 119.374 94.726 119.374 102.246 111.886C103.067 111.164 103.067 109.883 102.246 109.062C101.524 108.339 100.243 108.339 99.5207 109.062ZM102.049 84.4315C97.5831 84.4315 93.9707 88.0768 93.9707 92.6087C93.9707 97.075 97.616 100.687 102.049 100.687C106.581 100.687 110.227 97.0422 110.227 92.6087C110.227 88.0768 106.614 84.4315 102.049 84.4315V84.4315Z" fill="white"/>
</svg>
