<svg width="169" height="169" viewBox="0 0 169 169" fill="none" xmlns="http://www.w3.org/2000/svg">
<path d="M84.1842 46.7335C63.2977 46.7335 46.4506 63.5807 46.4506 84.4671C46.4506 105.354 63.2977 122.201 84.1842 122.201C105.071 122.201 121.918 105.354 121.918 84.4671C121.918 63.5807 105.071 46.7335 84.1842 46.7335ZM84.1842 108.999C70.6868 108.999 59.6524 97.9974 59.6524 84.4671C59.6524 70.9369 70.654 59.9354 84.1842 59.9354C97.7145 59.9354 108.716 70.9369 108.716 84.4671C108.716 97.9974 97.6816 108.999 84.1842 108.999V108.999ZM132.263 45.19C132.263 50.0833 128.322 53.9913 123.461 53.9913C118.568 53.9913 114.66 50.0504 114.66 45.19C114.66 40.3297 118.601 36.3888 123.461 36.3888C128.322 36.3888 132.263 40.3297 132.263 45.19ZM157.254 54.1226C156.696 42.3329 154.003 31.8897 145.366 23.2855C136.762 14.6813 126.318 11.9884 114.529 11.3973C102.378 10.7076 65.9578 10.7076 53.8069 11.3973C42.05 11.9556 31.6067 14.6485 22.9697 23.2526C14.3327 31.8568 11.6726 42.3001 11.0815 54.0898C10.3918 66.2407 10.3918 102.661 11.0815 114.812C11.6398 126.601 14.3327 137.045 22.9697 145.649C31.6067 154.253 42.0171 156.946 53.8069 157.537C65.9578 158.227 102.378 158.227 114.529 157.537C126.318 156.979 136.762 154.286 145.366 145.649C153.97 137.045 156.663 126.601 157.254 114.812C157.944 102.661 157.944 66.2736 157.254 54.1226V54.1226ZM141.556 127.849C138.995 134.286 134.036 139.245 127.566 141.839C117.878 145.682 94.8902 144.795 84.1842 144.795C73.4783 144.795 50.4571 145.649 40.8021 141.839C34.3653 139.278 29.4064 134.319 26.812 127.849C22.9697 118.161 23.8564 95.1731 23.8564 84.4671C23.8564 73.7612 23.0026 50.7401 26.812 41.085C29.3736 34.6483 34.3325 29.6894 40.8021 27.095C50.49 23.2526 73.4783 24.1393 84.1842 24.1393C94.8902 24.1393 117.911 23.2855 127.566 27.095C134.003 29.6565 138.962 34.6154 141.556 41.085C145.399 50.7729 144.512 73.7612 144.512 84.4671C144.512 95.1731 145.399 118.194 141.556 127.849Z" fill="white"/>
</svg>
