<svg width="169" height="169" viewBox="0 0 169 169" fill="none" xmlns="http://www.w3.org/2000/svg">
<g clip-path="url(#clip0_2_78)">
<path d="M150.91 50.2527C151.017 51.7463 151.017 53.2402 151.017 54.7338C151.017 100.29 116.343 152.781 52.9695 152.781C33.4452 152.781 15.3081 147.127 0.0514526 137.312C2.82548 137.631 5.49245 137.738 8.37321 137.738C24.4831 137.738 39.3131 132.297 51.1557 123.015C36.0058 122.695 23.3097 112.773 18.9353 99.1166C21.0693 99.4365 23.2029 99.6499 25.4437 99.6499C28.5375 99.6499 31.6318 99.223 34.5122 98.4765C18.7222 95.2756 6.8793 81.4061 6.8793 64.6559V64.2293C11.4668 66.7898 16.8017 68.3901 22.4558 68.6033C13.1738 62.4151 7.09276 51.853 7.09276 39.9037C7.09276 33.5025 8.79948 27.6345 11.787 22.5134C28.7507 43.4245 54.2496 57.0806 82.8421 58.5745C82.3088 56.0139 81.9886 53.3469 81.9886 50.6796C81.9886 31.6887 97.352 16.2189 116.449 16.2189C126.371 16.2189 135.333 20.3798 141.628 27.1012C149.416 25.6076 156.884 22.7269 163.499 18.7795C160.939 26.7813 155.498 33.5028 148.35 37.7701C155.284 37.0236 162.006 35.1028 168.194 32.4358C163.5 39.2637 157.632 45.3447 150.91 50.2527V50.2527Z" fill="white"/>
</g>
<defs>
<clipPath id="clip0_2_78">
<rect width="168.143" height="168.143" fill="white" transform="translate(0.0514526 0.428571)"/>
</clipPath>
</defs>
</svg>
