<svg width="529" height="529" viewBox="0 0 529 529" fill="none" xmlns="http://www.w3.org/2000/svg">
<g filter="url(#filter0_i_202_36)">
<path fill-rule="evenodd" clip-rule="evenodd" d="M439.695 359.734C438.281 351.934 439.236 343.889 442.436 336.636C445.484 329.524 450.546 323.459 456.997 319.187C463.448 314.914 471.007 312.622 478.745 312.591H480.909C493.664 312.591 505.896 307.524 514.914 298.505C523.933 289.487 529 277.254 529 264.5C529 251.745 523.933 239.513 514.914 230.495C505.896 221.476 493.664 216.409 480.909 216.409H476.821C469.084 216.378 461.524 214.086 455.073 209.813C448.622 205.541 443.561 199.476 440.513 192.364V190.44C437.312 183.188 436.357 175.142 437.771 167.342C439.186 159.542 442.904 152.344 448.448 146.677L449.89 145.235C454.362 140.768 457.909 135.464 460.329 129.626C462.749 123.788 463.995 117.53 463.995 111.21C463.995 104.89 462.749 98.6324 460.329 92.7943C457.909 86.9561 454.362 81.6523 449.89 77.1859C445.424 72.7146 440.12 69.1674 434.282 66.7473C428.444 64.3272 422.186 63.0815 415.866 63.0815C409.546 63.0815 403.288 64.3272 397.45 66.7473C391.612 69.1674 386.308 72.7146 381.842 77.1859L380.399 78.6286C374.732 84.172 367.534 87.8906 359.734 89.3049C351.934 90.7193 343.889 89.7645 336.636 86.5636C329.524 83.5156 323.459 78.4544 319.187 72.0033C314.914 65.5521 312.622 57.9925 312.591 50.255V48.0909C312.591 35.3364 307.524 23.1043 298.505 14.0855C289.487 5.06671 277.254 0 264.5 0C251.745 0 239.513 5.06671 230.495 14.0855C221.476 23.1043 216.409 35.3364 216.409 48.0909V52.1786C216.378 59.9161 214.086 67.4758 209.813 73.9269C205.541 80.3781 199.476 85.4392 192.364 88.4873H190.44C183.188 91.6881 175.142 92.6429 167.342 91.2286C159.542 89.8142 152.344 86.0956 146.677 80.5523L145.235 79.1095C140.768 74.6382 135.464 71.0911 129.626 68.6709C123.788 66.2508 117.53 65.0051 111.21 65.0051C104.89 65.0051 98.6324 66.2508 92.7943 68.6709C86.9561 71.0911 81.6523 74.6382 77.1859 79.1095C72.7146 83.5759 69.1674 88.8798 66.7473 94.7179C64.3272 100.556 63.0815 106.814 63.0815 113.134C63.0815 119.454 64.3272 125.712 66.7473 131.55C69.1674 137.388 72.7146 142.692 77.1859 147.158L78.6286 148.601C84.172 154.268 87.8906 161.466 89.3049 169.266C90.7193 177.066 89.7645 185.111 86.5636 192.364C83.8156 199.835 78.8834 206.308 72.4081 210.939C65.9327 215.57 58.2139 218.147 50.255 218.333H48.0909C35.3364 218.333 23.1043 223.399 14.0855 232.418C5.06671 241.437 0 253.669 0 266.424C0 279.178 5.06671 291.41 14.0855 300.429C23.1043 309.448 35.3364 314.515 48.0909 314.515H52.1786C59.9161 314.545 67.4758 316.838 73.9269 321.11C80.3781 325.383 85.4392 331.448 88.4873 338.56C91.6881 345.812 92.6429 353.858 91.2286 361.658C89.8142 369.458 86.0956 376.656 80.5523 382.323L79.1095 383.765C74.6382 388.232 71.0911 393.536 68.6709 399.374C66.2508 405.212 65.0051 411.47 65.0051 417.79C65.0051 424.11 66.2508 430.368 68.6709 436.206C71.0911 442.044 74.6382 447.348 79.1095 451.814C83.5759 456.285 88.8798 459.833 94.7179 462.253C100.556 464.673 106.814 465.919 113.134 465.919C119.454 465.919 125.712 464.673 131.55 462.253C137.388 459.833 142.692 456.285 147.158 451.814L148.601 450.371C154.268 444.828 161.466 441.109 169.266 439.695C177.066 438.281 185.111 439.236 192.364 442.436C199.835 445.184 206.308 450.117 210.939 456.592C215.57 463.067 218.147 470.786 218.333 478.745V480.909C218.333 493.664 223.399 505.896 232.418 514.914C241.437 523.933 253.669 529 266.424 529C279.178 529 291.41 523.933 300.429 514.914C309.448 505.896 314.515 493.664 314.515 480.909V476.821C314.545 469.084 316.838 461.524 321.11 455.073C325.383 448.622 331.448 443.561 338.56 440.513C345.812 437.312 353.858 436.357 361.658 437.771C369.458 439.186 376.656 442.904 382.323 448.448L383.765 449.89C388.232 454.362 393.536 457.909 399.374 460.329C405.212 462.749 411.47 463.995 417.79 463.995C424.11 463.995 430.368 462.749 436.206 460.329C442.044 457.909 447.348 454.362 451.814 449.89C456.285 445.424 459.833 440.12 462.253 434.282C464.673 428.444 465.919 422.186 465.919 415.866C465.919 409.546 464.673 403.288 462.253 397.45C459.833 391.612 456.285 386.308 451.814 381.842L450.371 380.399C444.828 374.732 441.109 367.534 439.695 359.734ZM193.871 261.523C193.871 224.16 224.16 193.871 261.523 193.871C298.886 193.871 329.174 224.16 329.174 261.523C329.174 298.886 298.886 329.174 261.523 329.174C224.16 329.174 193.871 298.886 193.871 261.523ZM261.523 168.871C210.353 168.871 168.871 210.353 168.871 261.523C168.871 312.693 210.353 354.174 261.523 354.174C312.693 354.174 354.174 312.693 354.174 261.523C354.174 210.353 312.693 168.871 261.523 168.871Z" fill="#3F454F"/>
</g>
<defs>
<filter id="filter0_i_202_36" x="0" y="0" width="529" height="533" filterUnits="userSpaceOnUse" color-interpolation-filters="sRGB">
<feFlood flood-opacity="0" result="BackgroundImageFix"/>
<feBlend mode="normal" in="SourceGraphic" in2="BackgroundImageFix" result="shape"/>
<feColorMatrix in="SourceAlpha" type="matrix" values="0 0 0 0 0 0 0 0 0 0 0 0 0 0 0 0 0 0 127 0" result="hardAlpha"/>
<feOffset dy="4"/>
<feGaussianBlur stdDeviation="2"/>
<feComposite in2="hardAlpha" operator="arithmetic" k2="-1" k3="1"/>
<feColorMatrix type="matrix" values="0 0 0 0 0 0 0 0 0 0 0 0 0 0 0 0 0 0 0.25 0"/>
<feBlend mode="normal" in2="shape" result="effect1_innerShadow_202_36"/>
</filter>
</defs>
</svg>
