<svg width="169" height="169" viewBox="0 0 169 169" fill="none" xmlns="http://www.w3.org/2000/svg">
<path d="M84.2372 2.98727C39.2787 2.98727 2.79303 39.473 2.79303 84.4315C2.79303 129.39 39.2787 165.876 84.2372 165.876C129.196 165.876 165.681 129.39 165.681 84.4315C165.681 39.473 129.196 2.98727 84.2372 2.98727ZM117.308 122.822C115.928 122.822 115.074 122.395 113.794 121.64C93.3012 109.292 69.459 108.766 45.9125 113.594C44.6317 113.922 42.9568 114.448 42.0045 114.448C38.819 114.448 36.8157 111.919 36.8157 109.259C36.8157 105.876 38.8189 104.267 41.282 103.742C68.1783 97.7975 95.6657 98.323 119.114 112.346C121.117 113.627 122.299 114.776 122.299 117.764C122.299 120.753 119.968 122.822 117.308 122.822V122.822ZM126.142 101.279C124.434 101.279 123.284 100.523 122.102 99.8993C101.577 87.7484 70.9697 82.8551 43.745 90.2442C42.1687 90.6711 41.3148 91.0981 39.837 91.0981C36.3231 91.0981 33.466 88.241 33.466 84.727C33.466 81.2131 35.1737 78.8814 38.5562 77.9291C47.6859 75.3675 57.0125 73.4628 70.6741 73.4628C91.9876 73.4628 112.578 78.7501 128.802 88.4052C131.462 89.9815 132.513 92.0176 132.513 94.8747C132.48 98.4215 129.721 101.279 126.142 101.279V101.279ZM136.322 76.2542C134.614 76.2542 133.564 75.8273 132.086 74.9734C108.703 61.0163 66.8975 57.6665 39.837 65.2198C38.6547 65.5482 37.1769 66.0737 35.6006 66.0737C31.2657 66.0737 27.9488 62.6911 27.9488 58.3233C27.9488 53.8571 30.7074 51.3283 33.663 50.4745C45.2228 47.0919 58.1619 45.4828 72.2505 45.4828C96.224 45.4828 121.347 50.4745 139.705 61.1805C142.266 62.6583 143.941 64.6944 143.941 68.6024C143.941 73.0687 140.329 76.2542 136.322 76.2542V76.2542Z" fill="white"/>
</svg>
