<svg width="170" height="169" viewBox="0 0 170 169" fill="none" xmlns="http://www.w3.org/2000/svg">
<path d="M136.564 32.3166C122.804 18.5236 104.479 10.9375 85.0043 10.9375C44.8076 10.9375 12.0986 43.6465 12.0986 83.8432C12.0986 96.6838 15.4483 109.229 21.8193 120.296L11.4746 158.062L50.1278 147.915C60.7681 153.728 72.7548 156.782 84.9714 156.782H85.0043C125.168 156.782 158.6 124.073 158.6 83.876C158.6 64.4017 150.324 46.1096 136.564 32.3166V32.3166ZM85.0043 144.499C74.1013 144.499 63.4281 141.577 54.1343 136.059L51.934 134.746L29.0114 140.756L35.1197 118.391L33.6747 116.092C27.5992 106.437 24.4137 95.3045 24.4137 83.8432C24.4137 50.4445 51.6056 23.2526 85.0371 23.2526C101.227 23.2526 116.433 29.558 127.861 41.0193C139.289 52.4806 146.317 67.6857 146.284 83.876C146.284 117.308 118.403 144.499 85.0043 144.499V144.499ZM118.239 99.114C116.433 98.1944 107.467 93.7938 105.792 93.2027C104.117 92.5787 102.902 92.2832 101.687 94.1222C100.472 95.9613 96.991 100.034 95.9073 101.281C94.8564 102.497 93.7727 102.661 91.9664 101.741C81.2605 96.3882 74.2326 92.1847 67.1719 80.0665C65.3 76.8482 69.0438 77.0781 72.5249 70.1159C73.116 68.9008 72.8205 67.8499 72.3607 66.9304C71.9009 66.0109 68.2557 57.0454 66.745 53.4001C65.2672 49.8534 63.7565 50.346 62.64 50.2803C61.5891 50.2146 60.374 50.2146 59.1589 50.2146C57.9438 50.2146 55.9734 50.6744 54.2985 52.4806C52.6236 54.3197 47.9275 58.7203 47.9275 67.6857C47.9275 76.6511 54.4627 85.321 55.3494 86.5361C56.2689 87.7512 68.19 106.142 86.4821 114.056C98.0419 119.048 102.574 119.475 108.354 118.621C111.868 118.096 119.125 114.221 120.636 109.951C122.147 105.682 122.147 102.037 121.687 101.281C121.26 100.46 120.045 100.001 118.239 99.114Z" fill="white"/>
</svg>
