<svg width="1185" height="1428" viewBox="0 0 1185 1428" fill="none" xmlns="http://www.w3.org/2000/svg">
<circle cx="592" cy="525" r="500" fill="#F0D616" stroke="#3F454F" stroke-width="50"/>
<path d="M250.664 1136.84H264.287C301.423 1136.84 323.623 1149.45 330.889 1174.68C333.21 1182.85 334.37 1192.29 334.37 1202.99V1343H250.664V1136.84ZM138.35 1136.84H222.51V1343H138.35V1136.84ZM25.7324 1136.84H109.893V1343H25.7324V1136.84ZM610.918 1136.84H624.541C661.676 1136.84 683.877 1149.45 691.143 1174.68C693.464 1182.85 694.624 1192.29 694.624 1202.99V1343H610.918V1136.84ZM498.604 1136.84H582.764V1343H498.604V1136.84ZM385.986 1136.84H470.146V1343H385.986V1136.84ZM848.413 1136.99H932.422V1194.21H916.68C889.333 1194.21 870.664 1189.92 860.674 1181.34C852.5 1174.28 848.413 1162.87 848.413 1147.13V1136.99ZM740.791 1136.99H822.227V1219.94H882.925V1259.45H822.227V1342.7H740.791V1136.99ZM848.262 1328.32C848.262 1307.43 860.371 1293.25 884.59 1285.78C893.874 1282.96 905.832 1281.54 920.464 1281.54H932.422V1343H848.262V1328.32ZM1163.56 1201.02C1163.56 1231.49 1150.24 1251.52 1123.6 1261.11C1138.53 1266.66 1149.79 1275.69 1157.35 1288.21C1163.91 1299.31 1167.19 1312.22 1167.19 1326.96V1343H1076.98V1136.69H1084.85C1111.49 1136.69 1131.12 1141.73 1143.73 1151.82C1156.95 1162.42 1163.56 1178.82 1163.56 1201.02ZM970.415 1136.99H1051.85V1343H970.415V1136.99Z" fill="#F0D616"/>
<path d="M250.664 1136.84V1131.84H245.664V1136.84H250.664ZM330.889 1174.68L335.699 1173.31L335.696 1173.3L335.693 1173.3L330.889 1174.68ZM334.37 1343V1348H339.37V1343H334.37ZM250.664 1343H245.664V1348H250.664V1343ZM138.35 1136.84V1131.84H133.35V1136.84H138.35ZM222.51 1136.84H227.51V1131.84H222.51V1136.84ZM222.51 1343V1348H227.51V1343H222.51ZM138.35 1343H133.35V1348H138.35V1343ZM25.7324 1136.84V1131.84H20.7324V1136.84H25.7324ZM109.893 1136.84H114.893V1131.84H109.893V1136.84ZM109.893 1343V1348H114.893V1343H109.893ZM25.7324 1343H20.7324V1348H25.7324V1343ZM250.664 1141.84H264.287V1131.84H250.664V1141.84ZM264.287 1141.84C282.357 1141.84 296.238 1144.92 306.319 1150.65C316.249 1156.29 322.801 1164.66 326.084 1176.06L335.693 1173.3C331.711 1159.47 323.53 1148.92 311.259 1141.95C299.14 1135.07 283.353 1131.84 264.287 1131.84V1141.84ZM326.079 1176.05C328.246 1183.68 329.37 1192.64 329.37 1202.99H339.37C339.37 1191.94 338.173 1182.03 335.699 1173.31L326.079 1176.05ZM329.37 1202.99V1343H339.37V1202.99H329.37ZM334.37 1338H250.664V1348H334.37V1338ZM255.664 1343V1136.84H245.664V1343H255.664ZM138.35 1141.84H222.51V1131.84H138.35V1141.84ZM217.51 1136.84V1343H227.51V1136.84H217.51ZM222.51 1338H138.35V1348H222.51V1338ZM143.35 1343V1136.84H133.35V1343H143.35ZM25.7324 1141.84H109.893V1131.84H25.7324V1141.84ZM104.893 1136.84V1343H114.893V1136.84H104.893ZM109.893 1338H25.7324V1348H109.893V1338ZM30.7324 1343V1136.84H20.7324V1343H30.7324ZM610.918 1136.84V1131.84H605.918V1136.84H610.918ZM691.143 1174.68L695.952 1173.31L695.95 1173.3L695.947 1173.3L691.143 1174.68ZM694.624 1343V1348H699.624V1343H694.624ZM610.918 1343H605.918V1348H610.918V1343ZM498.604 1136.84V1131.84H493.604V1136.84H498.604ZM582.764 1136.84H587.764V1131.84H582.764V1136.84ZM582.764 1343V1348H587.764V1343H582.764ZM498.604 1343H493.604V1348H498.604V1343ZM385.986 1136.84V1131.84H380.986V1136.84H385.986ZM470.146 1136.84H475.146V1131.84H470.146V1136.84ZM470.146 1343V1348H475.146V1343H470.146ZM385.986 1343H380.986V1348H385.986V1343ZM610.918 1141.84H624.541V1131.84H610.918V1141.84ZM624.541 1141.84C642.611 1141.84 656.491 1144.92 666.573 1150.65C676.503 1156.29 683.055 1164.66 686.338 1176.06L695.947 1173.3C691.964 1159.47 683.784 1148.92 671.513 1141.95C659.394 1135.07 643.607 1131.84 624.541 1131.84V1141.84ZM686.333 1176.05C688.5 1183.68 689.624 1192.64 689.624 1202.99H699.624C699.624 1191.94 698.427 1182.03 695.952 1173.31L686.333 1176.05ZM689.624 1202.99V1343H699.624V1202.99H689.624ZM694.624 1338H610.918V1348H694.624V1338ZM615.918 1343V1136.84H605.918V1343H615.918ZM498.604 1141.84H582.764V1131.84H498.604V1141.84ZM577.764 1136.84V1343H587.764V1136.84H577.764ZM582.764 1338H498.604V1348H582.764V1338ZM503.604 1343V1136.84H493.604V1343H503.604ZM385.986 1141.84H470.146V1131.84H385.986V1141.84ZM465.146 1136.84V1343H475.146V1136.84H465.146ZM470.146 1338H385.986V1348H470.146V1338ZM390.986 1343V1136.84H380.986V1343H390.986ZM848.413 1136.99V1131.99H843.413V1136.99H848.413ZM932.422 1136.99H937.422V1131.99H932.422V1136.99ZM932.422 1194.21V1199.21H937.422V1194.21H932.422ZM860.674 1181.34L857.405 1185.12L857.411 1185.13L857.417 1185.13L860.674 1181.34ZM740.791 1136.99V1131.99H735.791V1136.99H740.791ZM822.227 1136.99H827.227V1131.99H822.227V1136.99ZM822.227 1219.94H817.227V1224.94H822.227V1219.94ZM882.925 1219.94H887.925V1214.94H882.925V1219.94ZM882.925 1259.45V1264.45H887.925V1259.45H882.925ZM822.227 1259.45V1254.45H817.227V1259.45H822.227ZM822.227 1342.7V1347.7H827.227V1342.7H822.227ZM740.791 1342.7H735.791V1347.7H740.791V1342.7ZM884.59 1285.78L883.134 1281L883.125 1281L883.117 1281.01L884.59 1285.78ZM932.422 1281.54H937.422V1276.54H932.422V1281.54ZM932.422 1343V1348H937.422V1343H932.422ZM848.262 1343H843.262V1348H848.262V1343ZM848.413 1141.99H932.422V1131.99H848.413V1141.99ZM927.422 1136.99V1194.21H937.422V1136.99H927.422ZM932.422 1189.21H916.68V1199.21H932.422V1189.21ZM916.68 1189.21C889.454 1189.21 872.442 1184.85 863.931 1177.55L857.417 1185.13C868.886 1194.98 889.211 1199.21 916.68 1199.21V1189.21ZM863.943 1177.56C857.295 1171.81 853.413 1162.1 853.413 1147.13H843.413C843.413 1163.65 847.705 1176.74 857.405 1185.12L863.943 1177.56ZM853.413 1147.13V1136.99H843.413V1147.13H853.413ZM740.791 1141.99H822.227V1131.99H740.791V1141.99ZM817.227 1136.99V1219.94H827.227V1136.99H817.227ZM822.227 1224.94H882.925V1214.94H822.227V1224.94ZM877.925 1219.94V1259.45H887.925V1219.94H877.925ZM882.925 1254.45H822.227V1264.45H882.925V1254.45ZM817.227 1259.45V1342.7H827.227V1259.45H817.227ZM822.227 1337.7H740.791V1347.7H822.227V1337.7ZM745.791 1342.7V1136.99H735.791V1342.7H745.791ZM853.262 1328.32C853.262 1318.91 855.958 1311.34 861.146 1305.26C866.401 1299.11 874.544 1294.11 886.063 1290.56L883.117 1281.01C870.417 1284.92 860.396 1290.75 853.542 1298.77C846.62 1306.87 843.262 1316.84 843.262 1328.32H853.262ZM886.046 1290.57C894.683 1287.94 906.101 1286.54 920.464 1286.54V1276.54C905.562 1276.54 893.064 1277.98 883.134 1281L886.046 1290.57ZM920.464 1286.54H932.422V1276.54H920.464V1286.54ZM927.422 1281.54V1343H937.422V1281.54H927.422ZM932.422 1338H848.262V1348H932.422V1338ZM853.262 1343V1328.32H843.262V1343H853.262ZM1123.6 1261.11L1121.91 1256.41L1109.04 1261.03L1121.86 1265.8L1123.6 1261.11ZM1157.35 1288.21L1161.66 1285.66L1161.65 1285.64L1161.63 1285.62L1157.35 1288.21ZM1167.19 1343V1348H1172.19V1343H1167.19ZM1076.98 1343H1071.98V1348H1076.98V1343ZM1076.98 1136.69V1131.69H1071.98V1136.69H1076.98ZM1143.73 1151.82L1146.86 1147.92L1146.85 1147.92L1143.73 1151.82ZM970.415 1136.99V1131.99H965.415V1136.99H970.415ZM1051.85 1136.99H1056.85V1131.99H1051.85V1136.99ZM1051.85 1343V1348H1056.85V1343H1051.85ZM970.415 1343H965.415V1348H970.415V1343ZM1158.56 1201.02C1158.56 1215.53 1155.39 1227.13 1149.41 1236.13C1143.44 1245.1 1134.4 1251.91 1121.91 1256.41L1125.29 1265.82C1139.44 1260.72 1150.38 1252.73 1157.73 1241.67C1165.07 1230.64 1168.56 1216.98 1168.56 1201.02H1158.56ZM1121.86 1265.8C1135.83 1270.99 1146.14 1279.33 1153.08 1290.79L1161.63 1285.62C1153.43 1272.05 1141.23 1262.33 1125.34 1256.42L1121.86 1265.8ZM1153.05 1290.75C1159.09 1300.97 1162.19 1312.99 1162.19 1326.96H1172.19C1172.19 1311.46 1168.73 1297.64 1161.66 1285.66L1153.05 1290.75ZM1162.19 1326.96V1343H1172.19V1326.96H1162.19ZM1167.19 1338H1076.98V1348H1167.19V1338ZM1081.98 1343V1136.69H1071.98V1343H1081.98ZM1076.98 1141.69H1084.85V1131.69H1076.98V1141.69ZM1084.85 1141.69C1111.03 1141.69 1129.29 1146.68 1140.61 1155.73L1146.85 1147.92C1132.94 1136.79 1111.95 1131.69 1084.85 1131.69V1141.69ZM1140.6 1155.72C1152.29 1165.09 1158.56 1179.83 1158.56 1201.02H1168.56C1168.56 1177.81 1161.61 1159.74 1146.86 1147.92L1140.6 1155.72ZM970.415 1141.99H1051.85V1131.99H970.415V1141.99ZM1046.85 1136.99V1343H1056.85V1136.99H1046.85ZM1051.85 1338H970.415V1348H1051.85V1338ZM975.415 1343V1136.99H965.415V1343H975.415Z" fill="#3F454F"/>
<path d="M676.889 869.979C667.36 869.918 658 867.453 649.675 862.814C641.351 858.175 634.332 851.511 629.268 843.438C574.213 756.908 524.661 666.998 480.905 574.24L464.45 570.221C448.371 565.826 433.556 557.697 421.209 546.497C408.863 535.297 399.334 521.342 393.397 505.765L322.117 318.654C316.383 303.846 314.066 287.934 315.34 272.106C316.613 256.278 321.444 240.941 329.472 227.241L338.496 211.695C341.751 206.126 346.415 201.512 352.02 198.318C357.624 195.123 363.97 193.46 370.421 193.496H370.876C377.422 193.533 383.841 195.307 389.477 198.638C395.113 201.969 399.763 206.737 402.952 212.454L726.899 787.399C730.488 793.756 732.728 800.784 733.478 808.045C734.229 815.306 733.473 822.643 731.259 829.599C726.947 843.57 717.451 855.359 704.719 862.547C696.242 867.392 686.653 869.953 676.889 869.979V869.979ZM370.421 221.932C368.93 221.914 367.461 222.29 366.163 223.023C364.864 223.755 363.782 224.818 363.027 226.103L354.041 241.573C348.154 251.62 344.615 262.869 343.69 274.477C342.764 286.086 344.475 297.753 348.695 308.607L420.014 495.756C424.331 507.145 431.28 517.351 440.294 525.542C449.309 533.733 460.132 539.675 471.882 542.884L494.631 548.875C496.619 549.408 498.47 550.36 500.059 551.668C501.649 552.976 502.939 554.609 503.844 556.458C547.851 650.077 597.746 740.813 653.23 828.12C657.01 834.286 663.032 838.747 670.032 840.564C677.033 842.381 684.465 841.413 690.766 837.865C697.217 834.307 702.031 828.378 704.188 821.334C705.23 818.065 705.587 814.617 705.234 811.205C704.882 807.793 703.829 804.49 702.141 801.504L378.193 226.482C377.473 225.057 376.356 223.869 374.977 223.062C373.599 222.255 372.017 221.863 370.421 221.932V221.932Z" fill="#2B3344"/>
<path d="M438.403 869.979C428.12 870.005 418.04 867.126 409.322 861.675C396.896 854.257 387.819 842.322 383.989 828.366C380.159 814.411 381.872 799.514 388.772 786.793C421.227 727.076 459.976 662.393 500.849 599.568C502.91 596.405 506.144 594.191 509.837 593.412C513.531 592.634 517.383 593.355 520.546 595.416C523.708 597.477 525.922 600.711 526.701 604.405C527.48 608.098 526.759 611.95 524.698 615.113C484.242 677.256 445.872 741.333 413.985 800.291C410.584 806.613 409.759 814.006 411.681 820.923C413.602 827.84 418.123 833.747 424.298 837.41C430.356 841.187 437.657 842.429 444.624 840.868C451.59 839.308 457.663 835.069 461.531 829.068C488.792 787.892 517.607 741.067 547.295 689.73C549.248 686.604 552.339 684.36 555.915 683.469C559.492 682.578 563.274 683.11 566.466 684.954C569.657 686.798 572.007 689.809 573.022 693.353C574.036 696.896 573.634 700.695 571.902 703.948C541.911 755.778 512.83 803.096 485.379 844.576C480.319 852.421 473.361 858.862 465.149 863.303C456.938 867.743 447.738 870.04 438.403 869.979ZM564.736 542.884C562.879 542.905 561.037 542.557 559.315 541.861C557.593 541.166 556.026 540.136 554.705 538.832C553.383 537.528 552.332 535.975 551.614 534.262C550.895 532.55 550.523 530.713 550.518 528.856V528.515C550.524 525.65 551.382 522.852 552.982 520.477C574.025 489.841 592.035 464.248 605.381 445.329C594.429 436.144 587.092 423.371 584.676 409.283C582.26 395.196 584.921 380.708 592.187 368.399L701.382 186.406C703.407 183.336 706.54 181.168 710.126 180.354C713.712 179.54 717.473 180.143 720.625 182.037C723.777 183.931 726.075 186.969 727.04 190.518C728.004 194.067 727.56 197.85 725.8 201.079L616.604 383.072C614.451 386.645 613.03 390.61 612.421 394.736C611.813 398.863 612.03 403.069 613.06 407.111C614.09 411.153 615.912 414.95 618.421 418.282C620.93 421.615 624.075 424.416 627.675 426.523L632.718 429.632C634.368 430.651 635.791 431.998 636.9 433.589C638.008 435.181 638.779 436.982 639.163 438.883C639.56 440.782 639.559 442.743 639.161 444.642C638.763 446.54 637.976 448.336 636.851 449.916L633.059 455.604C619.561 474.561 600.149 502.202 577.02 535.908C575.753 538.036 573.954 539.797 571.8 541.02C569.647 542.243 567.212 542.885 564.736 542.884V542.884ZM609.059 621.217C606.716 621.206 604.412 620.62 602.348 619.511C599.033 617.727 596.561 614.702 595.474 611.099C594.387 607.495 594.772 603.608 596.547 600.288C625.249 546.714 650.917 496.855 665.249 466.978C666.103 465.163 667.332 463.548 668.854 462.241C670.377 460.934 672.159 459.964 674.083 459.395C675.977 458.82 677.973 458.657 679.935 458.919C681.897 459.181 683.781 459.86 685.458 460.912L690.387 463.945C693.937 466.134 697.887 467.597 702.007 468.247C706.127 468.898 710.335 468.725 714.387 467.737C718.39 466.739 722.155 464.955 725.462 462.488C728.769 460.021 731.552 456.92 733.648 453.367L842.844 271.374C844.869 268.304 848.001 266.136 851.587 265.322C855.173 264.508 858.935 265.111 862.087 267.005C865.239 268.899 867.537 271.937 868.501 275.486C869.465 279.034 869.021 282.818 867.261 286.047L758.141 467.85C754.122 474.608 748.802 480.5 742.489 485.186C736.176 489.872 728.995 493.259 721.364 495.149C709.062 498.175 696.122 497.273 684.358 492.571C669.192 523.169 646.443 566.999 621.609 613.558C620.417 615.86 618.616 617.791 616.404 619.141C614.191 620.492 611.651 621.21 609.059 621.217V621.217Z" fill="#2B3344"/>
<path d="M678.14 374.2C675.561 374.188 673.033 373.481 670.823 372.152C667.602 370.215 665.28 367.081 664.363 363.437C663.447 359.792 664.011 355.932 665.931 352.702L748.624 214.767C750.56 211.529 753.703 209.192 757.361 208.271C761.02 207.351 764.894 207.921 768.132 209.857C771.37 211.792 773.706 214.935 774.627 218.593C775.548 222.252 774.978 226.126 773.042 229.364L690.349 367.261C689.097 369.383 687.311 371.141 685.169 372.358C683.027 373.575 680.604 374.21 678.14 374.2V374.2ZM725.269 402.447C722.7 402.447 720.181 401.739 717.989 400.399C716.391 399.443 714.996 398.182 713.885 396.687C712.774 395.192 711.969 393.493 711.515 391.687C711.06 389.881 710.966 388.003 711.238 386.16C711.51 384.318 712.142 382.547 713.098 380.949L795.791 243.013C796.71 241.336 797.958 239.861 799.461 238.677C800.964 237.493 802.69 236.624 804.536 236.123C806.382 235.622 808.31 235.498 810.206 235.76C812.101 236.022 813.923 236.663 815.565 237.646C817.206 238.629 818.632 239.932 819.758 241.479C820.883 243.026 821.685 244.784 822.115 246.648C822.545 248.512 822.594 250.444 822.26 252.328C821.926 254.211 821.215 256.008 820.17 257.611L737.515 395.508C736.255 397.631 734.462 399.387 732.314 400.604C730.166 401.821 727.737 402.456 725.269 402.447V402.447Z" fill="#2B3344"/>
</svg>
